<svg width="24" height="24" viewBox="0 0 24 24" fill="none" xmlns="http://www.w3.org/2000/svg">
<path d="M15.3202 2.20654L16.3564 0.317431C16.4245 0.192364 16.4003 0.0964593 16.2836 0.0290222C16.157 -0.0291282 16.0598 0.000337522 15.9918 0.115336L14.941 2.01954C14.0164 1.61557 13.0385 1.41322 12.0073 1.41322C10.9759 1.41322 9.99792 1.61562 9.07368 2.01954L8.02289 0.115336C7.9546 0.000337522 7.85733 -0.0288678 7.73104 0.0290222C7.61414 0.096763 7.58995 0.192364 7.65823 0.317431L8.69454 2.20654C7.64374 2.7361 6.80685 3.47361 6.18416 4.42068C5.56147 5.36827 5.25 6.40378 5.25 7.52903H18.75C18.75 6.40404 18.4385 5.36849 17.8158 4.42068C17.1931 3.47361 16.361 2.7361 15.3202 2.20654ZM9.32899 4.95427C9.21693 5.06528 9.08308 5.12052 8.92749 5.12052C8.7716 5.12052 8.64048 5.06528 8.53351 4.95427C8.42654 4.84379 8.37305 4.71204 8.37305 4.55777C8.37305 4.40401 8.42654 4.272 8.53351 4.16126C8.64048 4.05077 8.77191 3.99553 8.92749 3.99553C9.08308 3.99553 9.21693 4.05077 9.32899 4.16126C9.44079 4.27226 9.49696 4.40401 9.49696 4.55777C9.49665 4.71178 9.44053 4.84379 9.32899 4.95427ZM15.4806 4.95427C15.3734 5.06528 15.242 5.12052 15.0866 5.12052C14.9307 5.12052 14.7969 5.06528 14.6851 4.95427C14.573 4.84379 14.5171 4.71204 14.5171 4.55777C14.5171 4.40401 14.573 4.272 14.6851 4.16126C14.7969 4.05077 14.9307 3.99553 15.0866 3.99553C15.2422 3.99553 15.3734 4.05077 15.4806 4.16126C15.5877 4.27226 15.641 4.40401 15.641 4.55777C15.641 4.71178 15.5876 4.84379 15.4806 4.95427Z" fill="#231F56"/>
<path d="M5.25 17.6536C5.25 18.0963 5.40558 18.4711 5.71679 18.7786C6.02827 19.0862 6.4075 19.2399 6.8552 19.2399H7.99325L8.00804 22.5143C8.00804 22.9278 8.15397 23.2789 8.44581 23.5673C8.73766 23.8558 9.08813 24 9.49661 24C9.91479 24 10.27 23.8558 10.5619 23.5673C10.8538 23.2789 10.9997 22.9278 10.9997 22.5143V19.2402H13.0138V22.5143C13.0138 22.9278 13.1597 23.2789 13.4515 23.5673C13.7434 23.8558 14.0984 24 14.5169 24C14.9351 24 15.2903 23.8558 15.5822 23.5673C15.8741 23.2789 16.02 22.9278 16.02 22.5143V19.2402H17.1593C17.597 19.2402 17.9714 19.0864 18.2832 18.7789C18.5943 18.4713 18.75 18.0966 18.75 17.6539V8.04774H5.25V17.6536Z" fill="#231F56"/>
<path d="M20.9927 7.77393C20.5828 7.77393 20.2317 7.91354 19.939 8.19201C19.6463 8.47099 19.5 8.81368 19.5 9.21948V15.314C19.5 15.7208 19.6463 16.0653 19.939 16.3488C20.2317 16.6322 20.5831 16.7739 20.9927 16.7739C21.4121 16.7739 21.7683 16.6322 22.061 16.3488C22.3537 16.0653 22.5 15.7208 22.5 15.314V9.21948C22.5 8.81364 22.3537 8.47099 22.061 8.19201C21.7683 7.91354 21.4121 7.77393 20.9927 7.77393Z" fill="#231F56"/>
<path d="M1.93898 8.19905C2.23161 7.91563 2.58759 7.77393 3.00716 7.77393C3.41699 7.77393 3.76835 7.91563 4.06102 8.19905C4.35369 8.48246 4.5 8.82251 4.5 9.21948V15.314C4.5 15.7208 4.35585 16.0653 4.06833 16.3488C3.78024 16.6322 3.42641 16.7739 3.00716 16.7739C2.58759 16.7739 2.23161 16.6322 1.93898 16.3488C1.64631 16.0653 1.5 15.7208 1.5 15.314V9.21948C1.5 8.82255 1.64636 8.48246 1.93898 8.19905Z" fill="#231F56"/>
</svg>
