<svg width="24" height="24" viewBox="0 0 24 24" fill="none" xmlns="http://www.w3.org/2000/svg">
<path d="M20.3175 4.36053C18.7613 3.64631 17.1191 3.13658 15.432 2.84403C15.4167 2.84145 15.401 2.84368 15.3871 2.85039C15.3731 2.85711 15.3615 2.86799 15.354 2.88153C15.1425 3.25653 14.9085 3.74703 14.745 4.13103C12.9264 3.85504 11.0766 3.85504 9.25801 4.13103C9.07563 3.70325 8.86931 3.28609 8.64001 2.88153C8.63231 2.86813 8.62074 2.85738 8.60682 2.85069C8.5929 2.84399 8.57728 2.84167 8.56201 2.84403C6.8746 3.13539 5.2323 3.64517 3.67651 4.36053C3.6632 4.36561 3.65206 4.37515 3.64501 4.38753C0.534009 9.03603 -0.319491 13.5705 0.0990092 18.048C0.100509 18.069 0.114009 18.09 0.130509 18.1035C1.94211 19.4454 3.96841 20.47 6.12301 21.1335C6.13822 21.1383 6.15457 21.1382 6.16967 21.133C6.18478 21.1279 6.19786 21.1181 6.20701 21.105C6.66901 20.475 7.08001 19.8105 7.43401 19.1115C7.4389 19.102 7.44168 19.0915 7.44218 19.0808C7.44268 19.0701 7.44088 19.0594 7.4369 19.0495C7.43292 19.0395 7.42685 19.0305 7.41911 19.0231C7.41137 19.0157 7.40212 19.0101 7.39201 19.0065C6.74576 18.7581 6.11986 18.4597 5.52001 18.114C5.50905 18.1077 5.49984 18.0987 5.49319 18.088C5.48655 18.0772 5.48268 18.0649 5.48194 18.0523C5.4812 18.0397 5.4836 18.027 5.48893 18.0156C5.49427 18.0041 5.50237 17.9941 5.51251 17.9865C5.63851 17.892 5.76451 17.793 5.88451 17.694C5.89511 17.6855 5.90783 17.68 5.9213 17.6782C5.93478 17.6763 5.9485 17.6782 5.96101 17.6835C9.88951 19.4775 14.142 19.4775 18.0225 17.6835C18.0354 17.6778 18.0497 17.6757 18.0637 17.6775C18.0778 17.6794 18.091 17.6851 18.102 17.694C18.222 17.793 18.348 17.892 18.474 17.9865C18.4842 17.994 18.4924 18.0039 18.4979 18.0153C18.5033 18.0267 18.5059 18.0393 18.5053 18.0519C18.5047 18.0645 18.501 18.0768 18.4945 18.0877C18.488 18.0985 18.4789 18.1076 18.468 18.114C17.8695 18.4629 17.2428 18.7609 16.5945 19.005C16.5845 19.0089 16.5754 19.0148 16.5678 19.0224C16.5602 19.0301 16.5543 19.0392 16.5505 19.0492C16.5467 19.0593 16.545 19.07 16.5456 19.0808C16.5462 19.0915 16.5491 19.102 16.554 19.1115C16.914 19.809 17.3265 20.475 17.7795 21.105C17.7887 21.1181 17.8017 21.1279 17.8168 21.133C17.8319 21.1382 17.8483 21.1383 17.8635 21.1335C20.0217 20.4721 22.0513 19.4474 23.865 18.1035C23.874 18.0972 23.8815 18.0889 23.887 18.0793C23.8924 18.0697 23.8957 18.059 23.8965 18.048C24.3975 12.8715 23.058 8.37453 20.3475 4.38903C20.3448 4.38245 20.3407 4.37651 20.3355 4.3716C20.3304 4.36669 20.3242 4.36292 20.3175 4.36053ZM8.02051 15.321C6.83701 15.321 5.86351 14.235 5.86351 12.903C5.86351 11.5695 6.81901 10.4835 8.02051 10.4835C9.23101 10.4835 10.1955 11.5785 10.1775 12.903C10.1775 14.235 9.22201 15.321 8.02051 15.321ZM15.9945 15.321C14.8125 15.321 13.8375 14.235 13.8375 12.903C13.8375 11.5695 14.793 10.4835 15.9945 10.4835C17.205 10.4835 18.171 11.5785 18.1515 12.903C18.1515 14.235 17.205 15.321 15.9945 15.321Z" fill="#D5C9FF"/>
</svg>
