<?xml version="1.0" encoding="UTF-8" standalone="no"?><!DOCTYPE svg PUBLIC "-//W3C//DTD SVG 1.1//EN" "http://www.w3.org/Graphics/SVG/1.1/DTD/svg11.dtd"><svg width="100%" height="100%" viewBox="0 0 69 17" version="1.1" xmlns="http://www.w3.org/2000/svg" xmlns:xlink="http://www.w3.org/1999/xlink" xml:space="preserve" xmlns:serif="http://www.serif.com/" style="fill-rule:evenodd;clip-rule:evenodd;stroke-linejoin:round;stroke-miterlimit:2;"><path d="M50.764,1.673c-0.104,0.847 0.484,1.49 1.323,1.446c0.889,-0.047 1.66,-0.761 1.764,-1.607c0.11,-0.898 -0.492,-1.556 -1.382,-1.51c-0.839,0.044 -1.595,0.774 -1.705,1.671Z" style="fill:#ff8057;"/><path d="M0.282,15.617l6.783,-0.356c0.218,-0.011 0.338,-0.169 0.358,-0.338l0.26,-2.117c0.023,-0.186 -0.063,-0.299 -0.281,-0.288l-4.316,0.226l0.227,-1.849l3.711,-0.195c0.202,-0.01 0.319,-0.151 0.342,-0.337l0.249,-2.032c0.025,-0.204 -0.078,-0.316 -0.262,-0.306l-3.711,0.194l0.227,-1.849l4.299,-0.226c0.184,-0.009 0.316,-0.134 0.339,-0.32l0.26,-2.117c0.021,-0.169 -0.061,-0.317 -0.263,-0.306l-6.765,0.355c-0.202,0.01 -0.336,0.152 -0.359,0.338l-1.377,11.218c-0.021,0.169 0.061,0.316 0.279,0.305Z" style="fill:#fff;"/><path d="M9.031,15.158l2.115,-0.11c0.218,-0.012 0.331,-0.119 0.358,-0.339l1.482,-12.067c0.027,-0.22 -0.062,-0.317 -0.28,-0.305l-2.114,0.11c-0.218,0.012 -0.331,0.119 -0.358,0.339l-1.482,12.067c-0.027,0.22 0.061,0.317 0.279,0.305Z" style="fill:#fff;"/><path d="M13.683,14.915l2.165,-0.114c0.201,-0.01 0.314,-0.117 0.341,-0.338l0.874,-7.116l1.94,5.403c0.059,0.199 0.147,0.295 0.382,0.283l1.243,-0.065c0.219,-0.011 0.334,-0.135 0.458,-0.327l3.284,-5.677l-0.874,7.116c-0.027,0.221 0.061,0.317 0.262,0.306l2.182,-0.114c0.201,-0.01 0.314,-0.117 0.341,-0.338l1.378,-11.217c0.027,-0.22 -0.061,-0.317 -0.263,-0.306l-2.903,0.152c-0.185,0.01 -0.361,0.086 -0.508,0.33l-3.472,5.99l-2.037,-5.702c-0.089,-0.231 -0.249,-0.29 -0.45,-0.279l-2.887,0.151c-0.218,0.012 -0.331,0.119 -0.358,0.339l-1.377,11.217c-0.027,0.221 0.061,0.317 0.279,0.306Z" style="fill:#fff;"/><path d="M31.898,14.128c2.419,-0.126 4.589,-2.192 4.889,-4.633c0.3,-2.441 -1.389,-4.304 -3.807,-4.177c-2.419,0.126 -4.573,2.191 -4.873,4.632c-0.299,2.441 1.372,4.305 3.791,4.178Zm-1.106,-4.319c0.123,-1 0.939,-1.801 1.863,-1.85c0.941,-0.049 1.57,0.676 1.447,1.677c-0.122,1 -0.939,1.801 -1.88,1.851c-0.924,0.048 -1.553,-0.677 -1.43,-1.678Z" style="fill:#fff;fill-rule:nonzero;"/><path d="M37.223,12.487c0.697,0.838 1.761,1.27 3.021,1.204c2.065,-0.108 3.444,-1.425 3.623,-2.882c0.341,-2.781 -3.473,-2.564 -3.373,-3.378c0.036,-0.288 0.357,-0.457 0.727,-0.476c0.387,-0.021 0.79,0.093 1.261,0.338c0.094,0.046 0.174,0.075 0.241,0.072c0.067,-0.004 0.138,-0.041 0.232,-0.131l1.027,-1.03c0.151,-0.142 0.203,-0.296 0.088,-0.441c-0.487,-0.513 -1.467,-0.95 -2.66,-0.887c-1.747,0.091 -3.254,1.23 -3.439,2.738c-0.337,2.746 3.485,2.462 3.365,3.445c-0.038,0.305 -0.349,0.524 -0.786,0.547c-0.572,0.03 -1.113,-0.178 -1.722,-0.651c-0.09,-0.08 -0.17,-0.109 -0.254,-0.105c-0.084,0.005 -0.172,0.043 -0.266,0.132l-0.97,0.977c-0.17,0.161 -0.246,0.366 -0.115,0.528Z" style="fill:#fff;"/><path d="M45.509,8.19l-0.259,2.568c-0.029,1.201 1.139,-0.26 2.086,-0.26c0.455,0 0.617,0.184 0.627,0.041l0.056,-0.528l1.138,-9.265c0.027,-0.22 -0.061,-0.316 -0.28,-0.305l-2.114,0.111c-0.218,0.011 -0.331,0.118 -0.358,0.339l-0.896,7.299Z" style="fill:#fff;"/><path d="M49.575,12.714c-0.023,0.186 0.044,0.317 0.279,0.305l2.114,-0.111c0.202,-0.01 0.332,-0.118 0.359,-0.339l0.961,-7.828c0.027,-0.22 -0.045,-0.317 -0.279,-0.305l-2.115,0.111c-0.218,0.012 -0.331,0.118 -0.358,0.339l-0.961,7.828Z" style="fill:#fff;"/><path d="M54.506,12.775l2.114,-0.111c0.218,-0.011 0.333,-0.135 0.358,-0.338l0.516,-4.203c0.09,-0.729 0.837,-1.509 1.61,-1.55c0.907,-0.047 1.234,0.693 1.119,1.625l-0.489,3.983c-0.025,0.204 0.045,0.318 0.263,0.306l2.131,-0.111c0.201,-0.011 0.333,-0.136 0.358,-0.339l0.516,-4.203c0.092,-0.746 0.854,-1.51 1.61,-1.549c0.907,-0.048 1.217,0.694 1.103,1.626l-0.49,3.982c-0.024,0.204 0.062,0.317 0.28,0.306l2.131,-0.112c0.184,-0.01 0.318,-0.151 0.341,-0.338l0.558,-4.542c0.3,-2.439 -0.694,-3.716 -2.591,-3.617c-1.361,0.071 -2.41,0.732 -3.268,1.467c-0.493,-0.866 -1.249,-1.23 -2.24,-1.178c-1.092,0.057 -1.965,0.641 -2.584,1.33l0.087,-0.712c0.027,-0.22 -0.061,-0.316 -0.279,-0.304l-2.114,0.11c-0.218,0.012 -0.331,0.119 -0.358,0.339l-0.962,7.828c-0.025,0.203 0.061,0.317 0.28,0.305Z" style="fill:#fff;"/><path d="M38.3,13.95c1.744,1.719 3.823,2.397 6.233,1.969c1.537,-0.273 2.83,-1.015 3.871,-2.179c0.671,-0.749 0.37,-1.957 -0.565,-2.306c-0.488,-0.182 -0.936,-0.034 -1.345,0.219c-0.585,0.362 -1.139,0.773 -1.722,1.139c-1.013,0.635 -2.079,1.157 -3.231,1.503c-1.137,0.342 -2.217,0.335 -3.241,-0.345" style="fill:#ff8057;fill-rule:nonzero;"/><g transform="matrix(0.99863,-0.052336,-0.121869,0.992546,-3.65647,0.252104)"><text x="33.107px" y="5.109px" style="font-family:'Crossten-Extrabold', 'Crossten';font-size:1.399px;fill:#f47e59;">LA SAINE COMMUNA<tspan x="46.534px " y="5.109px ">U</tspan>TÉ</text></g></svg>