<svg width="19" height="24" viewBox="0 0 19 24" fill="none" xmlns="http://www.w3.org/2000/svg">
<path d="M14.1505 0.31932C14.1008 0.263781 12.3105 0.341243 10.7525 2.03225C9.19445 3.72179 9.43415 5.65979 9.46922 5.70949C9.5043 5.75918 11.6908 5.83664 13.0865 3.87087C14.4823 1.90509 14.2002 0.37632 14.1505 0.31932ZM18.9941 17.4676C18.9239 17.3273 15.596 15.664 15.9059 12.4662C16.2157 9.26688 18.3539 8.38996 18.3876 8.29495C18.4212 8.19995 17.515 7.14034 16.5548 6.60395C15.8498 6.22578 15.0695 6.00911 14.2704 5.96964C14.1125 5.96526 13.5645 5.83079 12.4376 6.13918C11.6952 6.34233 10.0217 7.00003 9.5613 7.02634C9.09945 7.05264 7.7256 6.26341 6.24798 6.05441C5.30237 5.87172 4.29975 6.24587 3.58213 6.5338C2.86598 6.82026 1.50382 7.6358 0.550893 9.80327C-0.402033 11.9693 0.0963534 15.401 0.45297 16.4679C0.809586 17.5334 1.36643 19.2799 2.31351 20.5544C3.15536 21.9925 4.27198 22.9908 4.73821 23.3298C5.20444 23.6689 6.51983 23.894 7.43183 23.4278C8.16553 22.9776 9.48968 22.7189 10.0129 22.7379C10.5347 22.7569 11.5636 22.963 12.6174 23.5257C13.4519 23.8136 14.2412 23.6938 15.0319 23.3722C15.8225 23.0492 16.9669 21.8244 18.3028 19.3413C18.8099 18.1867 19.0409 17.5626 18.9941 17.4676Z" fill="#231F56"/>
<path d="M14.1505 0.31932C14.1008 0.263781 12.3105 0.341243 10.7525 2.03225C9.19445 3.72179 9.43415 5.65979 9.46922 5.70949C9.5043 5.75918 11.6908 5.83664 13.0865 3.87087C14.4823 1.90509 14.2002 0.37632 14.1505 0.31932ZM18.9941 17.4676C18.9239 17.3273 15.596 15.664 15.9059 12.4662C16.2157 9.26688 18.3539 8.38996 18.3876 8.29495C18.4212 8.19995 17.515 7.14034 16.5548 6.60395C15.8498 6.22578 15.0695 6.00911 14.2704 5.96964C14.1125 5.96526 13.5645 5.83079 12.4376 6.13918C11.6952 6.34233 10.0217 7.00003 9.5613 7.02634C9.09945 7.05264 7.7256 6.26341 6.24798 6.05441C5.30237 5.87172 4.29975 6.24587 3.58213 6.5338C2.86598 6.82026 1.50382 7.6358 0.550893 9.80327C-0.402033 11.9693 0.0963534 15.401 0.45297 16.4679C0.809586 17.5334 1.36643 19.2799 2.31351 20.5544C3.15536 21.9925 4.27198 22.9908 4.73821 23.3298C5.20444 23.6689 6.51983 23.894 7.43183 23.4278C8.16553 22.9776 9.48968 22.7189 10.0129 22.7379C10.5347 22.7569 11.5636 22.963 12.6174 23.5257C13.4519 23.8136 14.2412 23.6938 15.0319 23.3722C15.8225 23.0492 16.9669 21.8244 18.3028 19.3413C18.8099 18.1867 19.0409 17.5626 18.9941 17.4676Z" fill="#231F56"/>
</svg>
