<svg width="138" height="32" viewBox="0 0 138 32" fill="none" xmlns="http://www.w3.org/2000/svg">
<path d="M97.4579 1.15475C97.5003 1.18462 97.5427 1.21577 97.5852 1.24734C98.7135 2.08574 99.8268 3.67378 99.8268 6.81573C99.8268 7.07429 99.8007 7.6281 99.7488 8.47716L99.6709 9.29636C99.6709 9.37913 99.7176 9.42052 99.8114 9.42052C99.9048 9.42052 100.409 9.39705 101.324 9.35054C102.239 9.30404 102.769 9.28057 102.914 9.28057C103.299 9.28057 103.583 9.35566 103.765 9.50585C103.946 9.65603 104.038 9.93294 104.038 10.3366C104.038 10.6058 104.025 12.1145 103.398 12.4673C103.232 12.5612 99.697 11.8094 99.6867 12.8402C99.6768 13.7968 99.6627 15.6993 99.5462 18.5537C99.4463 20.998 100.844 22.0195 102.3 22.0195C104.347 22.0195 105.031 20.373 105.262 19.2184C104.944 18.302 104.763 17.3001 104.763 16.222C104.763 10.4155 108.512 7.84613 112.791 8.15375C118.367 8.55439 119.17 13.621 118.878 14.9983C118.636 16.1379 117.616 19.1587 110.469 18.3165C110.199 18.2845 111.488 22.0771 115.879 22.0771C120.27 22.0771 122.771 16.9046 122.139 13.5784C121.907 13.1133 121.709 12.7481 121.547 12.4831C121.339 12.1516 121.157 11.9186 121.001 11.7842C120.783 11.5671 120.632 11.4143 120.549 11.326C120.466 11.2381 120.377 11.1011 120.284 10.9147C120.19 10.7282 120.143 10.5371 120.143 10.3404C120.143 10.0609 120.232 9.83822 120.409 9.67268C120.585 9.50713 120.84 9.42436 121.173 9.42436C121.474 9.42436 121.893 9.43716 122.428 9.46318C122.964 9.48878 123.387 9.50201 123.699 9.50201C123.98 9.50201 124.448 9.48878 125.102 9.46318C125.758 9.43716 126.246 9.42436 126.569 9.42436C126.943 9.42436 127.221 9.49646 127.403 9.64153C127.585 9.78659 127.676 10.0554 127.676 10.4488C127.676 10.6147 127.533 10.8861 127.247 11.2641C126.961 11.6417 126.818 11.9963 126.818 12.3278C126.818 12.804 127.255 14.1236 128.128 16.2868C129.001 18.409 129.516 19.5943 129.672 19.8426C129.745 19.9459 129.802 19.9979 129.843 19.9979C129.989 19.9979 130.2 19.6306 130.475 18.8954C130.751 18.1607 131.132 17.0424 131.621 15.5419C132.089 14.1962 132.323 13.275 132.323 12.7779C132.323 12.3948 132.222 12.056 132.019 11.7608C131.816 11.4659 131.616 11.2044 131.419 10.977C131.221 10.7491 131.122 10.5264 131.122 10.3093C131.122 10.04 131.208 9.82542 131.38 9.665C131.551 9.50457 131.767 9.42436 132.027 9.42436C132.256 9.42436 132.65 9.43716 133.212 9.46318C133.774 9.48878 134.158 9.50201 134.366 9.50201C134.626 9.50201 134.967 9.48878 135.387 9.46318C135.809 9.43716 136.092 9.42436 136.237 9.42436C136.841 9.42436 137.142 9.69315 137.142 10.2316C137.142 10.4799 137.082 10.7001 136.963 10.8912C136.843 11.0828 136.695 11.2539 136.518 11.4037C136.341 11.5538 136.123 11.8256 135.863 12.219C135.603 12.6124 135.364 13.0937 135.146 13.6628C135.052 13.9116 134.61 15.0759 133.82 17.1564C133.03 19.2372 132.443 20.7173 132.058 21.5971C130.81 24.5266 129.963 26.4312 129.516 27.311C128.425 29.4328 127.317 30.8147 126.194 31.4564C125.57 31.8187 124.9 32 124.182 32C123.32 32 122.602 31.741 122.03 31.2235C121.459 30.7059 121.173 30.028 121.173 29.1896C121.173 28.4549 121.386 27.8336 121.812 27.3263C122.238 26.8194 122.748 26.5656 123.34 26.5656C123.798 26.5656 124.203 26.7883 124.557 27.2333C124.588 27.2747 124.661 27.3784 124.775 27.5439C124.89 27.7095 124.97 27.8183 125.017 27.8699C125.063 27.9215 125.136 27.9966 125.235 28.0952C125.334 28.1933 125.427 28.2582 125.516 28.2893C125.604 28.32 125.7 28.3358 125.804 28.3358C126.095 28.3358 126.428 28.0901 126.802 27.5981C127.177 27.1066 127.364 26.6432 127.364 26.2085C127.364 25.8979 127.184 25.2745 126.826 24.3375C126.467 23.4006 125.955 22.1718 125.29 20.6499C124.624 19.1284 124.255 18.2798 124.182 18.1036C123.964 17.5928 123.757 17.1137 123.562 16.6666C123.028 20.1097 120.389 25.6184 113.628 25.6184C111.198 25.6184 108.017 23.9881 106.201 21.1478C105.802 22.6454 104.142 25.5471 100.419 25.6184C98.5322 25.6547 96.5168 24.6298 95.5423 22.6471C95.0439 23.9599 93.5496 25.6372 90.9689 25.6227C88.7877 25.6103 87.0161 23.8934 86.543 22.1061L86.5426 22.1065C86.2006 23.1753 84.6137 25.7199 81.8501 25.6197C79.6992 25.5416 77.9838 23.6967 77.743 21.8484C77.3821 19.084 77.7515 16.7621 77.3281 15.1246C76.6793 12.6179 75.1083 12.2967 74.0018 12.2967C73.305 12.2967 72.6451 12.5812 72.0211 13.1504C71.3971 13.72 71.0856 14.4031 71.0856 15.2001V20.9759C71.0856 21.5868 71.0367 23.0934 71.6821 23.5068C71.8921 23.6412 72.028 23.7889 72.1111 23.9186C72.1942 24.0478 72.2358 24.2159 72.2358 24.4229C72.2358 25.0232 71.8304 25.3236 71.0192 25.3236C70.7179 25.3236 70.7239 25.3108 70.1574 25.2847C69.5909 25.2587 69.1726 25.2459 68.9022 25.2459C68.5692 25.2459 68.0755 25.2587 67.4207 25.2847C66.7655 25.3108 66.6862 25.3236 66.3014 25.3236C65.9864 25.3236 66.0254 24.55 66.1565 23.6225C65.4876 24.675 64.2011 25.6077 62.5345 25.6197C60.7214 25.6325 59.1966 24.4237 58.6828 23.2547C58.6618 23.2073 58.5063 23.3532 58.3087 23.5499C57.7992 24.0261 56.2792 24.8551 55.5099 25.1606C54.7403 25.4656 53.9556 25.6184 53.1551 25.6184C51.7825 25.6184 50.6597 25.2771 49.7864 24.594C49.3064 24.2185 48.9584 23.7603 48.7424 23.2188C48.5672 23.663 47.3711 25.6726 44.67 25.6184C42.2869 25.5706 40.0542 23.3204 40.1177 21.2557C40.2531 16.8389 40.2659 17.7673 40.2659 16.4421C40.2659 13.6786 39.4136 12.2967 37.7084 12.2967C37.0952 12.2967 36.5077 12.571 35.9463 13.1197C35.3849 13.668 35.1042 14.4291 35.1042 15.4019C35.1042 16.3751 35.0862 17.56 35.0498 18.9577C35.0133 20.3551 35.0056 21.173 34.9949 21.4106C34.9075 23.3571 36.0658 25.3236 35.2135 25.3236C34.9431 25.3236 34.5792 25.3108 34.1216 25.2847C33.6643 25.2587 33.3056 25.2459 33.0455 25.2459C32.6924 25.2459 32.2921 25.2587 31.8447 25.2847C31.3978 25.3108 31.0129 25.3236 30.6907 25.3236C30.0984 25.3236 29.8019 25.039 29.8019 24.4694C29.8019 24.1071 29.9214 23.5998 30.1606 22.9479C30.3166 22.4926 30.449 21.6333 30.5582 20.3704C30.6675 19.1075 30.722 17.7981 30.722 16.4421C30.722 13.6786 29.8799 12.2967 28.1957 12.2967C27.5928 12.2967 27.0027 12.5812 26.4254 13.1504C25.8486 13.72 25.5602 14.4031 25.5602 15.2001C25.5602 15.2001 24.9307 21.1952 25.675 23.9847C26.182 25.8838 20.683 25.2719 20.2532 25.0556C19.8773 24.8658 20.737 22.4461 20.437 22.9479C19.9133 23.8243 18.5969 25.5365 15.8906 25.5565C14.0882 25.5697 12.5258 24.5837 11.9357 23.7398C11.7951 23.5384 11.6965 23.4138 11.5616 23.4138C11.4887 23.4138 11.2543 23.5585 11.0254 23.7863C10.7863 23.9932 10.6278 24.128 10.5498 24.1899C10.4722 24.2522 10.2665 24.3943 9.93396 24.617C9.60141 24.8397 9.30229 25.0027 9.03746 25.106C8.77219 25.2096 8.42122 25.3108 7.98454 25.4089C7.54785 25.5075 7.10089 25.5565 6.64364 25.5565C5.71799 25.5565 4.91234 25.4115 4.22625 25.1218C3.54016 24.832 2.99934 24.4178 2.60423 23.8797C2.20912 23.3413 1.91814 22.7358 1.73087 22.063C1.54403 21.3901 1.45018 20.6345 1.45018 19.7961C1.45018 18.9368 1.5076 17.7827 1.62202 16.3338C1.73644 14.8844 1.79344 14.0822 1.79344 13.9269C1.79344 13.1918 1.57488 12.6175 1.13863 12.2036C1.04478 12.1102 0.883647 11.9912 0.654807 11.8465C0.426396 11.7015 0.260123 11.559 0.155988 11.4194C0.0518532 11.2795 0 11.1011 0 10.8835C0 10.3349 0.436681 10.014 1.31004 9.92099C2.10027 9.83822 2.81507 9.73966 3.45445 9.62617C4.09383 9.51225 4.57722 9.42436 4.90463 9.36206C5.23203 9.29977 5.49473 9.26905 5.69228 9.26905C6.35737 9.26905 6.69035 9.62105 6.69035 10.3246C6.69035 10.718 6.59393 11.7275 6.40151 13.3522C6.20953 14.9774 6.11311 16.6286 6.11311 18.3054C6.11311 19.6511 6.31838 20.6862 6.72935 21.4106C7.13989 22.1355 7.83369 22.4978 8.81119 22.4978C9.62198 22.4978 10.2901 22.2106 10.815 21.6359C11.34 21.0616 11.6027 20.1737 11.6027 18.9731V14.5012C11.6027 13.8698 11.5534 13.3911 11.4544 13.0651C11.3559 12.7391 11.1609 12.4468 10.8695 12.1879C10.797 12.1153 10.6929 12.0223 10.5579 11.9084C10.4225 11.7945 10.3162 11.7015 10.2382 11.6289C10.1602 11.5564 10.0899 11.4557 10.0274 11.326C9.96524 11.1967 9.93396 11.0491 9.93396 10.8835C9.93396 10.3558 10.3394 10.04 11.1506 9.93635C11.7951 9.87449 12.4473 9.78659 13.1077 9.67268C13.7677 9.55876 14.2978 9.46318 14.698 9.38553C15.0987 9.30788 15.3764 9.26905 15.5324 9.26905C16.1563 9.26905 16.4683 9.6155 16.4683 10.3093C16.4683 10.5162 16.4083 11.0521 16.2888 11.9161C16.1692 12.7805 16.0745 14.7726 16.1096 19.5521C16.1152 20.3431 16.7417 21.6892 18.1019 21.6892C20.752 21.6892 21.0824 18.1953 21.1313 16.754C21.2015 14.6727 21.1313 14.0511 21.1313 14.0511C21.1313 13.368 20.8141 12.8816 20.1799 12.5915C20.0552 12.519 19.9562 12.4571 19.8833 12.4055C19.8109 12.3534 19.7355 12.2681 19.6575 12.149C19.5795 12.03 19.5405 11.8982 19.5405 11.7531C19.5405 11.5978 19.5744 11.4634 19.6416 11.3495C19.7094 11.2355 19.8238 11.1323 19.9849 11.0389C20.146 10.9458 20.2969 10.8707 20.437 10.814C20.5776 10.7568 20.7854 10.6766 21.061 10.5729C21.3365 10.4697 21.5628 10.3818 21.7393 10.3093C22.0513 10.1642 22.3607 10.014 22.6671 9.8587C22.974 9.70382 23.1977 9.5899 23.3378 9.51737C23.4784 9.44484 23.6185 9.38553 23.7591 9.3386C23.8992 9.29209 24.0316 9.26905 24.1567 9.26905C24.458 9.26905 24.6946 9.3467 24.866 9.50201C25.0378 9.65689 25.1702 9.92611 25.2637 10.3093C25.2846 10.3818 25.3108 10.4983 25.3416 10.6587C25.3729 10.8191 25.3991 10.9382 25.4196 11.0158C25.4406 11.0935 25.4664 11.1814 25.4976 11.2795C25.5289 11.3781 25.5628 11.448 25.5992 11.4894C25.6356 11.5308 25.6746 11.5513 25.7162 11.5513C25.7783 11.5513 25.9527 11.4271 26.2386 11.1788C26.5244 10.9301 26.8492 10.6587 27.2131 10.3634C27.5769 10.0686 28.0603 9.79683 28.6637 9.54852C29.2666 9.29977 29.8747 9.17561 30.488 9.17561C32.089 9.17561 33.3056 9.75545 34.1374 10.9147C34.1995 10.9872 34.2647 11.07 34.3324 11.163C34.3997 11.2565 34.452 11.326 34.4884 11.3729C34.5248 11.4194 34.5634 11.4685 34.6054 11.5201C34.6469 11.5722 34.6859 11.6084 34.7219 11.6289C34.7584 11.6498 34.7974 11.6601 34.8389 11.6601C34.9015 11.6601 35.0836 11.5308 35.3849 11.2718C35.6866 11.0133 36.0294 10.7282 36.4142 10.4181C36.7991 10.1074 37.3189 9.82286 37.9737 9.56388C38.6285 9.30532 39.3043 9.17561 40.0011 9.17561C43.2134 9.17561 44.67 10.9599 44.67 14.8933C44.67 15.8666 44.7656 16.6478 44.4836 18.9577C44.3058 20.4165 44.8487 21.013 45.2601 21.4106C45.6617 21.7989 47.7079 22.4589 48.616 20.5731C49.0488 18.8856 50.4892 17.6329 52.9365 16.815C53.4774 16.6388 54.1035 16.4835 54.8157 16.3491C55.5279 16.2147 56.1154 16.1034 56.5778 16.0155C57.0407 15.9271 57.3342 15.8367 57.4589 15.7437C57.7088 15.5572 57.8335 15.0602 57.8335 14.2529C57.8335 13.3522 57.6308 12.6226 57.2254 12.0637C56.8195 11.5048 56.2273 11.2253 55.4474 11.2253C54.2414 11.2253 53.4045 12.0897 52.9365 13.8181C52.8016 14.2943 52.6169 14.654 52.3829 14.8972C52.1489 15.1404 51.7928 15.2624 51.3145 15.2624C50.7429 15.2624 50.2518 15.0657 49.8408 14.6723C49.4302 14.2789 49.225 13.7251 49.225 13.0109C49.225 12.007 49.7941 11.1139 50.9327 10.3323C52.0709 9.55108 53.5862 9.16025 55.4786 9.16025C56.4664 9.16025 57.3732 9.28441 58.1999 9.53273C59.0265 9.78147 59.7567 10.1514 60.391 10.6429C61.0252 11.1349 61.5189 11.7842 61.8724 12.5915C62.226 13.3992 62.4025 14.3254 62.4025 15.3708C62.4025 16.0645 62.3421 17.0288 62.3168 18.2665C62.3091 18.6599 62.2376 19.2154 62.2534 19.7121C62.292 20.8914 63.1649 21.8719 64.4227 21.8719C65.9067 21.8719 66.5829 20.536 66.5787 19.7121V14.0511C66.5787 13.368 66.2354 12.8761 65.5493 12.5761C65.1439 12.3278 64.9412 12.0535 64.9412 11.7531C64.9412 11.5978 64.9746 11.4634 65.0423 11.3495C65.11 11.2355 66.8285 10.0272 67.1559 9.86681C67.4833 9.70638 67.7173 9.5899 67.8578 9.51737C67.998 9.44484 68.1437 9.38553 68.2945 9.3386C68.4449 9.29209 68.5881 9.26905 68.7231 9.26905C69.0247 9.26905 69.2613 9.3467 69.4327 9.50201C69.6041 9.65689 69.7421 9.92611 69.8463 10.3093C69.8565 10.3506 69.8694 10.4155 69.8853 10.5034C69.9007 10.5913 69.9135 10.6613 69.9238 10.7129C69.9345 10.7645 69.9474 10.8268 69.9628 10.8993C69.9787 10.9719 69.9941 11.0312 70.01 11.0777C70.0254 11.1242 70.0408 11.1762 70.0567 11.233C70.0721 11.2902 70.0905 11.3341 70.1111 11.3648C70.1321 11.396 70.1527 11.4271 70.1737 11.4583C70.1942 11.4894 70.2178 11.5124 70.2435 11.5282C70.2697 11.5436 70.2984 11.5513 70.3297 11.5513C70.3918 11.5513 70.5739 11.4271 70.8752 11.1788C71.1769 10.9301 72.717 9.17561 75.4914 9.17561C77.8604 9.17561 79.3195 9.68547 80.1616 10.7052C81.0037 11.7245 81.4249 13.1816 81.4249 15.0759C81.4249 17.9837 80.8593 21.7494 83.7956 21.8484C84.9805 21.8885 85.8432 20.8206 85.8539 20.2791V14.5012C85.8539 13.6317 85.5265 13.0314 84.8713 12.7003C84.7153 12.5966 84.6009 12.5164 84.5284 12.4596C84.4556 12.4029 84.3776 12.312 84.2944 12.1879C84.2113 12.0637 84.1697 11.9344 84.1697 11.7996C84.1697 11.634 84.2032 11.4945 84.2709 11.3806C84.3386 11.2667 84.4504 11.1656 84.606 11.0777C84.762 10.9898 84.9128 10.9198 85.0585 10.8682C85.2038 10.8166 85.4146 10.744 85.6902 10.6506C85.9658 10.5576 86.1916 10.4748 86.3686 10.4023C86.7324 10.2576 87.1691 10.0686 87.6786 9.83566C88.1877 9.6027 88.5803 9.4346 88.8558 9.33092C89.1314 9.22766 89.3521 9.17561 89.5188 9.17561C90.1839 9.17561 90.5168 9.51737 90.5168 10.2005C90.5168 10.3246 90.4907 11.0077 90.4388 12.2502C90.3866 13.4922 90.3476 14.8144 90.3608 16.0074C90.3733 17.1419 90.5421 18.5797 90.5168 19.4074C90.4247 22.3996 92.5083 22.5037 92.8361 22.5037C93.8269 22.5037 94.9904 21.7558 94.9548 20.4378C94.9544 20.4233 94.9574 20.4203 94.9625 20.4267C94.9514 20.2663 94.9458 20.1029 94.9458 19.9356C94.9458 19.5009 94.9796 18.4658 95.0469 16.8304C95.1146 15.195 95.1485 14.0613 95.1485 13.4299C95.1485 13.0988 95.0962 12.8505 94.9925 12.6849C94.8884 12.519 94.7118 12.4157 94.4624 12.3743C93.9216 12.312 93.5265 12.2216 93.2771 12.1025C93.0276 11.9835 92.9025 11.7842 92.9025 11.5048C92.9025 10.8319 93.1472 10.3767 93.6357 10.1386C94.8001 9.55875 95.736 8.91705 96.4427 8.21306C96.7649 7.88197 97.1039 7.48218 97.3627 6.96336C98.0377 5.61041 98.0257 3.12168 96.2353 1.76531C96.0651 1.63603 95.8903 1.52553 95.7124 1.43166C96.2104 1.34291 97.0645 1.20638 97.4579 1.15475ZM57.8647 19.2991C57.8647 18.4709 57.7709 18.057 57.5841 18.057C56.6691 18.057 55.8528 18.1863 55.1354 18.4453C54.4806 18.6727 53.971 19.0068 53.6072 19.4467C53.2434 19.8866 53.0613 20.3704 53.0613 20.8982C53.0613 21.4157 53.2327 21.8352 53.5759 22.156C53.9192 22.4769 54.3764 22.6373 54.9481 22.6373C55.8425 22.6373 56.5521 22.3241 57.0771 21.6982C57.6021 21.0719 57.8647 20.2723 57.8647 19.2991ZM115.109 14.0822C115.159 13.3578 114.978 12.7545 114.565 12.2732C114.152 11.7919 113.607 11.5513 112.931 11.5513C112.037 11.5513 111.265 11.9344 110.613 12.7003C109.961 13.4661 109.6 14.3515 109.529 15.3554C109.487 15.966 109.668 16.2715 110.074 16.2715C110.697 16.2715 111.498 16.155 112.476 15.922C113.454 15.6891 114.175 15.3814 114.638 14.9983C114.926 14.75 115.083 14.4445 115.109 14.0822Z" fill="white"/>
<path fill-rule="evenodd" clip-rule="evenodd" d="M95.8444 1.50481C93.1981 -0.0303213 89.745 2.29286 90.5009 3.29382V3.29424C90.8125 3.65093 90.9685 4.09509 90.9685 4.62629C90.9685 5.47492 90.5836 6.21262 89.8144 6.83854C89.0452 7.46488 88.1872 7.77805 87.2415 7.77805C86.5965 7.77805 86.108 7.61507 85.7754 7.28909C85.4425 6.96312 85.2762 6.53091 85.2762 5.99246C85.2762 5.25135 85.541 4.56229 86.0711 3.92528C86.0775 3.91504 86.1003 3.88731 86.1393 3.84507C86.2044 3.77083 86.2725 3.69744 86.3445 3.62491C86.4611 3.50715 86.5798 3.3992 86.7006 3.30064C88.4182 1.74801 93.3289 -1.91447 97.5847 1.24711C97.6391 1.28764 97.6935 1.32946 97.7471 1.3734C97.6177 1.36743 97.4848 1.36444 97.3494 1.36444C96.7893 1.36444 96.2699 1.4165 95.8444 1.50481Z" fill="url(#paint0_linear_27_7)"/>
<defs>
<linearGradient id="paint0_linear_27_7" x1="96.2533" y1="1.5238" x2="89.3962" y2="2.2857" gradientUnits="userSpaceOnUse">
<stop stop-color="white"/>
<stop offset="1" stop-color="#E69B24"/>
</linearGradient>
</defs>
</svg>
